G75*
%MOIN*%
%OFA0B0*%
%FSLAX24Y24*%
%IPPOS*%
%LPD*%
%AMOC8*
5,1,8,0,0,1.08239X$1,22.5*
%
%ADD10C,0.0030*%
%ADD11R,0.1500X0.0760*%
%ADD12R,0.0760X0.1500*%
%ADD13OC8,0.0560*%
%ADD14OC8,0.0520*%
%ADD15C,0.0440*%
%ADD16C,0.0600*%
%ADD17C,0.0660*%
%ADD18C,0.0520*%
%ADD19C,0.0160*%
%ADD20C,0.0100*%
D10*
X000788Y000615D02*
X000788Y000905D01*
X000933Y000760D01*
X000740Y000760D01*
X001034Y000808D02*
X001034Y000857D01*
X001083Y000905D01*
X001179Y000905D01*
X001228Y000857D01*
X001329Y000857D02*
X001522Y000663D01*
X001474Y000615D01*
X001377Y000615D01*
X001329Y000663D01*
X001329Y000857D01*
X001377Y000905D01*
X001474Y000905D01*
X001522Y000857D01*
X001522Y000663D01*
X001624Y000615D02*
X001817Y000615D01*
X001624Y000808D01*
X001624Y000857D01*
X001672Y000905D01*
X001769Y000905D01*
X001817Y000857D01*
X001918Y000905D02*
X002112Y000615D01*
X002213Y000663D02*
X002261Y000615D01*
X002358Y000615D01*
X002406Y000663D01*
X002406Y000760D02*
X002310Y000808D01*
X002261Y000808D01*
X002213Y000760D01*
X002213Y000663D01*
X002406Y000760D02*
X002406Y000905D01*
X002213Y000905D01*
X002133Y001115D02*
X002229Y001212D01*
X002181Y001212D02*
X002326Y001212D01*
X002326Y001115D02*
X002326Y001405D01*
X002181Y001405D01*
X002133Y001357D01*
X002133Y001260D01*
X002181Y001212D01*
X002031Y001115D02*
X002031Y001405D01*
X001838Y001115D01*
X001838Y001405D01*
X002427Y001405D02*
X002524Y001405D01*
X002476Y001405D02*
X002476Y001163D01*
X002524Y001115D01*
X002572Y001115D01*
X002621Y001163D01*
X002722Y001260D02*
X002915Y001260D01*
X002770Y001405D01*
X002770Y001115D01*
X002802Y000905D02*
X002996Y000615D01*
X003097Y000663D02*
X003145Y000615D01*
X003242Y000615D01*
X003290Y000663D01*
X003290Y000712D01*
X003242Y000760D01*
X003145Y000760D01*
X003097Y000712D01*
X003097Y000663D01*
X003145Y000760D02*
X003097Y000808D01*
X003097Y000857D01*
X003145Y000905D01*
X003242Y000905D01*
X003290Y000857D01*
X003290Y000808D01*
X003242Y000760D01*
X003392Y000615D02*
X003585Y000615D01*
X003488Y000615D02*
X003488Y000905D01*
X003585Y000808D01*
X003210Y001115D02*
X003210Y001405D01*
X003017Y001405D01*
X003113Y001260D02*
X003210Y001260D01*
X002701Y000857D02*
X002653Y000905D01*
X002556Y000905D01*
X002508Y000857D01*
X002701Y000663D01*
X002653Y000615D01*
X002556Y000615D01*
X002508Y000663D01*
X002508Y000857D01*
X002701Y000857D02*
X002701Y000663D01*
X001228Y000615D02*
X001034Y000808D01*
X001034Y000615D02*
X001228Y000615D01*
D11*
X010880Y008305D03*
X010880Y010057D03*
X010880Y011809D03*
X010880Y013561D03*
X010880Y015313D03*
X010880Y017065D03*
X010880Y018817D03*
X018399Y018817D03*
X018399Y017065D03*
X018380Y015313D03*
X018399Y013561D03*
X018399Y011809D03*
X018399Y010057D03*
X018399Y008305D03*
D12*
X017356Y006533D03*
X015545Y006533D03*
X013734Y006533D03*
X011923Y006533D03*
D13*
X008600Y006100D03*
X006600Y006100D03*
X006600Y012100D03*
X008600Y012100D03*
X007100Y014100D03*
X009100Y017100D03*
X009100Y020100D03*
X009100Y022600D03*
X003100Y022600D03*
X003100Y020100D03*
X003100Y017100D03*
X001100Y014100D03*
X020100Y011475D03*
X021225Y013725D03*
X026100Y011475D03*
X027225Y013725D03*
X028100Y017100D03*
X028100Y023100D03*
D14*
X026600Y023100D03*
X025600Y023100D03*
X004100Y012100D03*
X002100Y012100D03*
X001850Y009975D03*
X002100Y008100D03*
X004100Y008100D03*
X003850Y009975D03*
X001600Y016100D03*
X002350Y016600D03*
X001600Y017100D03*
D15*
X002100Y005975D03*
X001100Y004975D03*
X003100Y004975D03*
D16*
X014100Y002400D02*
X014100Y001800D01*
X015100Y001800D02*
X015100Y002400D01*
X016100Y002400D02*
X016100Y001800D01*
X017100Y001800D02*
X017100Y002400D01*
X018100Y002400D02*
X018100Y001800D01*
X019100Y001800D02*
X019100Y002400D01*
X021100Y002400D02*
X021100Y001800D01*
X022100Y001800D02*
X022100Y002400D01*
X023100Y002400D02*
X023100Y001800D01*
X024100Y001800D02*
X024100Y002400D01*
X025100Y002400D02*
X025100Y001800D01*
X026100Y001800D02*
X026100Y002400D01*
X023205Y005100D02*
X022605Y005100D01*
X022605Y006100D02*
X023205Y006100D01*
X023205Y007100D02*
X022605Y007100D01*
X022605Y008100D02*
X023205Y008100D01*
X023100Y020800D02*
X023100Y021400D01*
X024100Y021400D02*
X024100Y020800D01*
X025100Y020800D02*
X025100Y021400D01*
X026100Y021400D02*
X026100Y020800D01*
X022100Y020800D02*
X022100Y021400D01*
X021100Y021400D02*
X021100Y020800D01*
X020100Y020800D02*
X020100Y021400D01*
X019100Y021400D02*
X019100Y020800D01*
X017500Y020800D02*
X017500Y021400D01*
X016500Y021400D02*
X016500Y020800D01*
X015500Y020800D02*
X015500Y021400D01*
X014500Y021400D02*
X014500Y020800D01*
X013500Y020800D02*
X013500Y021400D01*
X012500Y021400D02*
X012500Y020800D01*
X011500Y020800D02*
X011500Y021400D01*
X010500Y021400D02*
X010500Y020800D01*
X001900Y021100D02*
X001300Y021100D01*
X001300Y020100D02*
X001900Y020100D01*
D17*
X014600Y023020D02*
X014600Y023680D01*
X016100Y023680D02*
X016100Y023020D01*
X017600Y023020D02*
X017600Y023680D01*
X019475Y023680D02*
X019475Y023020D01*
X020975Y023020D02*
X020975Y023680D01*
X022475Y023680D02*
X022475Y023020D01*
D18*
X022725Y016485D02*
X022725Y015965D01*
X023475Y015965D02*
X023475Y016485D01*
D19*
X023475Y016225D02*
X023475Y014600D01*
X025600Y012475D01*
X027475Y012475D01*
X028350Y011600D01*
X028350Y001100D01*
X027850Y000600D01*
X004975Y000600D01*
X002100Y003475D01*
X002100Y005975D01*
X001100Y004975D02*
X001100Y009350D01*
X001725Y009975D01*
X001850Y009975D01*
X001100Y010725D01*
X001100Y014100D01*
X002100Y015600D02*
X002100Y012100D01*
X003850Y010350D01*
X003850Y009975D01*
X003850Y009850D01*
X002100Y008100D01*
X003100Y007100D01*
X003100Y004975D01*
X009725Y004975D01*
X010600Y005850D01*
X010600Y008225D01*
X010680Y008305D01*
X010880Y008305D01*
X010925Y008350D01*
X013225Y008350D01*
X013734Y007841D01*
X013734Y006533D01*
X011923Y006533D02*
X011850Y006460D01*
X011850Y004100D01*
X012725Y003225D01*
X014850Y003225D01*
X015100Y002975D01*
X015100Y002100D01*
X015600Y001475D02*
X015975Y001100D01*
X016725Y001100D01*
X016975Y001350D01*
X016975Y001975D01*
X017100Y002100D01*
X018100Y002100D01*
X018100Y001725D01*
X018725Y001100D01*
X026600Y001100D01*
X027475Y001975D01*
X027475Y006100D01*
X025475Y008100D01*
X022905Y008100D01*
X020100Y010905D01*
X020100Y011475D01*
X021225Y012975D02*
X021225Y013725D01*
X021225Y014350D01*
X020262Y015313D01*
X018380Y015313D01*
X017225Y016225D02*
X022725Y016225D01*
X022850Y016225D01*
X021065Y017065D02*
X023100Y019100D01*
X023100Y021100D01*
X022100Y021100D02*
X022100Y021600D01*
X022600Y022100D01*
X024100Y022100D01*
X024600Y021600D01*
X024600Y018100D01*
X025600Y017100D01*
X025600Y015350D01*
X027225Y013725D01*
X026100Y011475D02*
X022725Y011475D01*
X021225Y012975D01*
X017225Y016225D02*
X017100Y016350D01*
X017100Y018350D01*
X017567Y018817D01*
X018399Y018817D01*
X018350Y019600D02*
X018475Y019725D01*
X018475Y022225D01*
X018475Y022350D01*
X019475Y023350D01*
X018475Y022225D02*
X017600Y023225D01*
X017600Y023350D01*
X017350Y022475D02*
X016100Y022475D01*
X016100Y023350D01*
X015100Y024350D02*
X014600Y023600D01*
X014600Y023350D01*
X014100Y023600D01*
X004100Y023600D01*
X003100Y022600D01*
X002350Y022600D01*
X001600Y021850D01*
X001600Y021100D01*
X001100Y021100D01*
X000600Y020600D01*
X000600Y016600D01*
X001100Y016100D01*
X001600Y016100D01*
X002100Y015600D01*
X002350Y016600D02*
X002600Y016600D01*
X003100Y017100D01*
X001975Y017725D02*
X006100Y017725D01*
X007850Y015975D01*
X007850Y011100D01*
X008100Y010850D01*
X009921Y010850D01*
X010880Y011809D01*
X010880Y010057D02*
X011682Y010057D01*
X015475Y013850D01*
X015475Y021075D01*
X015500Y021100D01*
X016475Y021100D02*
X016475Y020100D01*
X017725Y020100D01*
X018100Y020600D01*
X018100Y021600D01*
X017350Y022475D01*
X017100Y021975D02*
X009600Y021975D01*
X009100Y021600D01*
X009100Y020100D01*
X009975Y019850D02*
X010975Y019850D01*
X011475Y020350D01*
X011475Y021075D01*
X011500Y021100D01*
X009975Y019850D02*
X009225Y019100D01*
X006600Y019100D01*
X003100Y022600D01*
X003100Y020100D02*
X001600Y020100D01*
X001975Y017725D02*
X001600Y017350D01*
X001600Y017100D01*
X007100Y014100D02*
X007100Y012600D01*
X006600Y012100D01*
X004100Y012100D01*
X004100Y008100D02*
X004100Y007350D01*
X005350Y006100D01*
X006600Y006100D01*
X008600Y006100D01*
X015600Y006600D02*
X015600Y001475D01*
X016100Y002100D02*
X016100Y003100D01*
X016475Y003475D01*
X018350Y005225D01*
X020225Y007100D01*
X022905Y007100D01*
X022905Y006100D02*
X021975Y006100D01*
X021725Y005850D01*
X021725Y004475D01*
X022725Y003475D01*
X024100Y003475D01*
X025100Y002475D01*
X025100Y002100D01*
X026100Y002100D02*
X026100Y003600D01*
X024600Y005100D01*
X022905Y005100D01*
X016475Y003475D02*
X016475Y019225D01*
X016850Y019600D01*
X018350Y019600D01*
X019100Y021100D02*
X019100Y021475D01*
X020975Y023350D01*
X022475Y023350D02*
X022475Y024350D01*
X015100Y024350D01*
X017100Y021975D02*
X017500Y021575D01*
X017500Y021100D01*
X016500Y021100D02*
X016475Y021100D01*
X014500Y021100D02*
X014475Y021075D01*
X014475Y015850D01*
X013100Y014475D01*
X009475Y014475D01*
X008600Y013600D01*
X008600Y012100D01*
X009100Y017100D02*
X009100Y017225D01*
X009725Y017850D01*
X011600Y017850D01*
X013475Y019725D01*
X013475Y021075D01*
X013500Y021100D01*
X009600Y021975D02*
X009100Y022600D01*
X018399Y017065D02*
X021065Y017065D01*
X026100Y021100D02*
X028100Y019100D01*
X028100Y017100D01*
X028100Y023100D02*
X026600Y023100D01*
X025600Y023100D02*
X025100Y023600D01*
X024475Y024350D01*
X022475Y024350D01*
D20*
X010880Y011809D02*
X011100Y011600D01*
X010880Y010057D02*
X010600Y010100D01*
X013734Y006533D02*
X014100Y006600D01*
X015600Y006600D01*
X015545Y006533D01*
X015600Y006100D01*
M02*
