%
M48
M72
T01C0.0240
T02C0.0320
T03C0.0360
T04C0.0400
T05C0.0440
%
T01
X1100Y4975
X2100Y5975
X3100Y4975
T02
X2100Y8100
X4100Y8100
X3850Y9975
X1850Y9975
X2100Y12100
X4100Y12100
X1600Y16100
X2350Y16600
X1600Y17100
X22725Y16225
X23475Y16225
X25600Y23100
X26600Y23100
T03
X28100Y23100
X28100Y17100
X27225Y13725
X26100Y11475
X21225Y13725
X20100Y11475
X9100Y17100
X9100Y20100
X9100Y22600
X3100Y22600
X3100Y20100
X3100Y17100
X1100Y14100
X6600Y12100
X8600Y12100
X7100Y14100
X6600Y6100
X8600Y6100
T04
X14100Y2100
X15100Y2100
X16100Y2100
X17100Y2100
X18100Y2100
X19100Y2100
X21100Y2100
X22100Y2100
X23100Y2100
X24100Y2100
X25100Y2100
X26100Y2100
X22905Y5100
X22905Y6100
X22905Y7100
X22905Y8100
X23100Y21100
X24100Y21100
X25100Y21100
X26100Y21100
X22100Y21100
X21100Y21100
X20100Y21100
X19100Y21100
X17500Y21100
X16500Y21100
X15500Y21100
X14500Y21100
X13500Y21100
X12500Y21100
X11500Y21100
X10500Y21100
X1600Y21100
X1600Y20100
T05
X14600Y23350
X16100Y23350
X17600Y23350
X19475Y23350
X20975Y23350
X22475Y23350
M30
