G75*
%MOIN*%
%OFA0B0*%
%FSLAX24Y24*%
%IPPOS*%
%LPD*%
%AMOC8*
5,1,8,0,0,1.08239X$1,22.5*
%
%ADD10C,0.0000*%
%ADD11C,0.0030*%
%ADD12C,0.0060*%
%ADD13R,0.0550X0.0300*%
%ADD14C,0.0050*%
%ADD15R,0.0300X0.0550*%
%ADD16C,0.0120*%
%ADD17C,0.0040*%
%ADD18R,0.0800X0.0200*%
%ADD19R,0.0200X0.0800*%
%ADD20C,0.0070*%
%ADD21R,0.0200X0.0200*%
%ADD22C,0.0100*%
D10*
X000100Y000100D02*
X000100Y024846D01*
X029470Y024846D01*
X029470Y000100D01*
X000100Y000100D01*
D11*
X001365Y000615D02*
X001558Y000615D01*
X001462Y000615D02*
X001462Y000905D01*
X001365Y000808D01*
X001660Y000808D02*
X001660Y000857D01*
X001708Y000905D01*
X001805Y000905D01*
X001853Y000857D01*
X001853Y000808D01*
X001805Y000760D01*
X001708Y000760D01*
X001660Y000808D01*
X001708Y000760D02*
X001660Y000712D01*
X001660Y000663D01*
X001708Y000615D01*
X001805Y000615D01*
X001853Y000663D01*
X001853Y000712D01*
X001805Y000760D01*
X001954Y000615D02*
X002148Y000905D01*
X002249Y000857D02*
X002297Y000905D01*
X002394Y000905D01*
X002442Y000857D01*
X002249Y000663D01*
X002297Y000615D01*
X002394Y000615D01*
X002442Y000663D01*
X002442Y000857D01*
X002544Y000905D02*
X002544Y000760D01*
X002640Y000808D01*
X002689Y000808D01*
X002737Y000760D01*
X002737Y000663D01*
X002689Y000615D01*
X002592Y000615D01*
X002544Y000663D01*
X002544Y000905D02*
X002737Y000905D01*
X002817Y001115D02*
X002721Y001212D01*
X002769Y001212D02*
X002624Y001212D01*
X002624Y001115D02*
X002624Y001405D01*
X002769Y001405D01*
X002817Y001357D01*
X002817Y001260D01*
X002769Y001212D01*
X002919Y001115D02*
X002919Y001405D01*
X003112Y001115D01*
X003112Y001405D01*
X003181Y000905D02*
X003133Y000857D01*
X003181Y000905D02*
X003278Y000905D01*
X003326Y000857D01*
X003326Y000808D01*
X003133Y000615D01*
X003326Y000615D01*
X003428Y000663D02*
X003621Y000857D01*
X003621Y000663D01*
X003573Y000615D01*
X003476Y000615D01*
X003428Y000663D01*
X003428Y000857D01*
X003476Y000905D01*
X003573Y000905D01*
X003621Y000857D01*
X003722Y000857D02*
X003771Y000905D01*
X003867Y000905D01*
X003916Y000857D01*
X003916Y000808D01*
X003722Y000615D01*
X003916Y000615D01*
X004017Y000760D02*
X004210Y000760D01*
X004162Y000615D02*
X004162Y000905D01*
X004017Y000760D01*
X003032Y000905D02*
X002838Y000615D01*
X002249Y000663D02*
X002249Y000857D01*
X002180Y001115D02*
X002180Y001405D01*
X002035Y001260D01*
X002228Y001260D01*
X002329Y001163D02*
X002378Y001115D01*
X002426Y001115D01*
X002474Y001163D01*
X002474Y001405D01*
X002426Y001405D02*
X002523Y001405D01*
X001933Y001405D02*
X001740Y001405D01*
X001740Y001115D01*
X001740Y001260D02*
X001837Y001260D01*
D12*
X001541Y004975D02*
X001543Y005022D01*
X001549Y005068D01*
X001559Y005114D01*
X001572Y005159D01*
X001589Y005202D01*
X001610Y005244D01*
X001634Y005284D01*
X001662Y005322D01*
X001693Y005358D01*
X001726Y005390D01*
X001762Y005420D01*
X001800Y005447D01*
X001841Y005470D01*
X001883Y005490D01*
X001927Y005507D01*
X001972Y005519D01*
X002018Y005528D01*
X002065Y005533D01*
X002112Y005534D01*
X002158Y005531D01*
X002205Y005524D01*
X002250Y005513D01*
X002295Y005499D01*
X002338Y005481D01*
X002379Y005459D01*
X002419Y005434D01*
X002456Y005406D01*
X002491Y005374D01*
X002523Y005340D01*
X002552Y005304D01*
X002578Y005265D01*
X002601Y005224D01*
X002620Y005181D01*
X002635Y005137D01*
X002647Y005091D01*
X002655Y005045D01*
X002659Y004998D01*
X002659Y004952D01*
X002655Y004905D01*
X002647Y004859D01*
X002635Y004813D01*
X002620Y004769D01*
X002601Y004726D01*
X002578Y004685D01*
X002552Y004646D01*
X002523Y004610D01*
X002491Y004576D01*
X002456Y004544D01*
X002419Y004516D01*
X002380Y004491D01*
X002338Y004469D01*
X002295Y004451D01*
X002250Y004437D01*
X002205Y004426D01*
X002158Y004419D01*
X002112Y004416D01*
X002065Y004417D01*
X002018Y004422D01*
X001972Y004431D01*
X001927Y004443D01*
X001883Y004460D01*
X001841Y004480D01*
X001800Y004503D01*
X001762Y004530D01*
X001726Y004560D01*
X001693Y004592D01*
X001662Y004628D01*
X001634Y004666D01*
X001610Y004706D01*
X001589Y004748D01*
X001572Y004791D01*
X001559Y004836D01*
X001549Y004882D01*
X001543Y004928D01*
X001541Y004975D01*
X000600Y004975D02*
X000602Y005052D01*
X000608Y005129D01*
X000618Y005206D01*
X000632Y005282D01*
X000649Y005357D01*
X000671Y005431D01*
X000696Y005504D01*
X000726Y005576D01*
X000758Y005646D01*
X000795Y005714D01*
X000834Y005780D01*
X000877Y005844D01*
X000924Y005906D01*
X000973Y005965D01*
X001026Y006022D01*
X001081Y006076D01*
X001139Y006127D01*
X001200Y006175D01*
X001263Y006220D01*
X001328Y006261D01*
X001395Y006299D01*
X001464Y006334D01*
X001535Y006364D01*
X001607Y006392D01*
X001681Y006415D01*
X001755Y006435D01*
X001831Y006451D01*
X001907Y006463D01*
X001984Y006471D01*
X002061Y006475D01*
X002139Y006475D01*
X002216Y006471D01*
X002293Y006463D01*
X002369Y006451D01*
X002445Y006435D01*
X002519Y006415D01*
X002593Y006392D01*
X002665Y006364D01*
X002736Y006334D01*
X002805Y006299D01*
X002872Y006261D01*
X002937Y006220D01*
X003000Y006175D01*
X003061Y006127D01*
X003119Y006076D01*
X003174Y006022D01*
X003227Y005965D01*
X003276Y005906D01*
X003323Y005844D01*
X003366Y005780D01*
X003405Y005714D01*
X003442Y005646D01*
X003474Y005576D01*
X003504Y005504D01*
X003529Y005431D01*
X003551Y005357D01*
X003568Y005282D01*
X003582Y005206D01*
X003592Y005129D01*
X003598Y005052D01*
X003600Y004975D01*
X003598Y004898D01*
X003592Y004821D01*
X003582Y004744D01*
X003568Y004668D01*
X003551Y004593D01*
X003529Y004519D01*
X003504Y004446D01*
X003474Y004374D01*
X003442Y004304D01*
X003405Y004236D01*
X003366Y004170D01*
X003323Y004106D01*
X003276Y004044D01*
X003227Y003985D01*
X003174Y003928D01*
X003119Y003874D01*
X003061Y003823D01*
X003000Y003775D01*
X002937Y003730D01*
X002872Y003689D01*
X002805Y003651D01*
X002736Y003616D01*
X002665Y003586D01*
X002593Y003558D01*
X002519Y003535D01*
X002445Y003515D01*
X002369Y003499D01*
X002293Y003487D01*
X002216Y003479D01*
X002139Y003475D01*
X002061Y003475D01*
X001984Y003479D01*
X001907Y003487D01*
X001831Y003499D01*
X001755Y003515D01*
X001681Y003535D01*
X001607Y003558D01*
X001535Y003586D01*
X001464Y003616D01*
X001395Y003651D01*
X001328Y003689D01*
X001263Y003730D01*
X001200Y003775D01*
X001139Y003823D01*
X001081Y003874D01*
X001026Y003928D01*
X000973Y003985D01*
X000924Y004044D01*
X000877Y004106D01*
X000834Y004170D01*
X000795Y004236D01*
X000758Y004304D01*
X000726Y004374D01*
X000696Y004446D01*
X000671Y004519D01*
X000649Y004593D01*
X000632Y004668D01*
X000618Y004744D01*
X000608Y004821D01*
X000602Y004898D01*
X000600Y004975D01*
X001750Y007600D02*
X004450Y007600D01*
X004467Y007602D01*
X004484Y007606D01*
X004500Y007613D01*
X004514Y007623D01*
X004527Y007636D01*
X004537Y007650D01*
X004544Y007666D01*
X004548Y007683D01*
X004550Y007700D01*
X004550Y008500D01*
X004548Y008517D01*
X004544Y008534D01*
X004537Y008550D01*
X004527Y008564D01*
X004514Y008577D01*
X004500Y008587D01*
X004484Y008594D01*
X004467Y008598D01*
X004450Y008600D01*
X001750Y008600D01*
X001733Y008598D01*
X001716Y008594D01*
X001700Y008587D01*
X001686Y008577D01*
X001673Y008564D01*
X001663Y008550D01*
X001656Y008534D01*
X001652Y008517D01*
X001650Y008500D01*
X001650Y007700D01*
X001652Y007683D01*
X001656Y007666D01*
X001663Y007650D01*
X001673Y007636D01*
X001686Y007623D01*
X001700Y007613D01*
X001716Y007606D01*
X001733Y007602D01*
X001750Y007600D01*
X002500Y008100D02*
X002970Y008100D01*
X003220Y008100D02*
X003700Y008100D01*
X004200Y009475D02*
X001500Y009475D01*
X001483Y009477D01*
X001466Y009481D01*
X001450Y009488D01*
X001436Y009498D01*
X001423Y009511D01*
X001413Y009525D01*
X001406Y009541D01*
X001402Y009558D01*
X001400Y009575D01*
X001400Y010375D01*
X001402Y010392D01*
X001406Y010409D01*
X001413Y010425D01*
X001423Y010439D01*
X001436Y010452D01*
X001450Y010462D01*
X001466Y010469D01*
X001483Y010473D01*
X001500Y010475D01*
X004200Y010475D01*
X004217Y010473D01*
X004234Y010469D01*
X004250Y010462D01*
X004264Y010452D01*
X004277Y010439D01*
X004287Y010425D01*
X004294Y010409D01*
X004298Y010392D01*
X004300Y010375D01*
X004300Y009575D01*
X004298Y009558D01*
X004294Y009541D01*
X004287Y009525D01*
X004277Y009511D01*
X004264Y009498D01*
X004250Y009488D01*
X004234Y009481D01*
X004217Y009477D01*
X004200Y009475D01*
X003450Y009975D02*
X002980Y009975D01*
X002730Y009975D02*
X002250Y009975D01*
X001750Y011600D02*
X004450Y011600D01*
X004467Y011602D01*
X004484Y011606D01*
X004500Y011613D01*
X004514Y011623D01*
X004527Y011636D01*
X004537Y011650D01*
X004544Y011666D01*
X004548Y011683D01*
X004550Y011700D01*
X004550Y012500D01*
X004548Y012517D01*
X004544Y012534D01*
X004537Y012550D01*
X004527Y012564D01*
X004514Y012577D01*
X004500Y012587D01*
X004484Y012594D01*
X004467Y012598D01*
X004450Y012600D01*
X001750Y012600D01*
X001733Y012598D01*
X001716Y012594D01*
X001700Y012587D01*
X001686Y012577D01*
X001673Y012564D01*
X001663Y012550D01*
X001656Y012534D01*
X001652Y012517D01*
X001650Y012500D01*
X001650Y011700D01*
X001652Y011683D01*
X001656Y011666D01*
X001663Y011650D01*
X001673Y011636D01*
X001686Y011623D01*
X001700Y011613D01*
X001716Y011606D01*
X001733Y011602D01*
X001750Y011600D01*
X002500Y012100D02*
X002970Y012100D01*
X003220Y012100D02*
X003700Y012100D01*
X002500Y013300D02*
X002250Y013300D01*
X002227Y013302D01*
X002204Y013307D01*
X002182Y013316D01*
X002162Y013329D01*
X002144Y013344D01*
X002129Y013362D01*
X002116Y013382D01*
X002107Y013404D01*
X002102Y013427D01*
X002100Y013450D01*
X002100Y014750D01*
X002102Y014773D01*
X002107Y014796D01*
X002116Y014818D01*
X002129Y014838D01*
X002144Y014856D01*
X002162Y014871D01*
X002182Y014884D01*
X002204Y014893D01*
X002227Y014898D01*
X002250Y014900D01*
X002500Y014900D01*
X002550Y014850D01*
X005650Y014850D01*
X005700Y014900D01*
X005950Y014900D01*
X005973Y014898D01*
X005996Y014893D01*
X006018Y014884D01*
X006038Y014871D01*
X006056Y014856D01*
X006071Y014838D01*
X006084Y014818D01*
X006093Y014796D01*
X006098Y014773D01*
X006100Y014750D01*
X006100Y013450D01*
X006098Y013427D01*
X006093Y013404D01*
X006084Y013382D01*
X006071Y013362D01*
X006056Y013344D01*
X006038Y013329D01*
X006018Y013316D01*
X005996Y013307D01*
X005973Y013302D01*
X005950Y013300D01*
X005700Y013300D01*
X005650Y013350D01*
X002550Y013350D01*
X002500Y013300D01*
X005800Y010950D02*
X005800Y010700D01*
X005850Y010650D01*
X005850Y007550D01*
X005800Y007500D01*
X005800Y007250D01*
X005802Y007227D01*
X005807Y007204D01*
X005816Y007182D01*
X005829Y007162D01*
X005844Y007144D01*
X005862Y007129D01*
X005882Y007116D01*
X005904Y007107D01*
X005927Y007102D01*
X005950Y007100D01*
X007250Y007100D01*
X007273Y007102D01*
X007296Y007107D01*
X007318Y007116D01*
X007338Y007129D01*
X007356Y007144D01*
X007371Y007162D01*
X007384Y007182D01*
X007393Y007204D01*
X007398Y007227D01*
X007400Y007250D01*
X007400Y007500D01*
X007350Y007550D01*
X007350Y010650D01*
X007400Y010700D01*
X007400Y010950D01*
X007398Y010973D01*
X007393Y010996D01*
X007384Y011018D01*
X007371Y011038D01*
X007356Y011056D01*
X007338Y011071D01*
X007318Y011084D01*
X007296Y011093D01*
X007273Y011098D01*
X007250Y011100D01*
X005950Y011100D01*
X005927Y011098D01*
X005904Y011093D01*
X005882Y011084D01*
X005862Y011071D01*
X005844Y011056D01*
X005829Y011038D01*
X005816Y011018D01*
X005807Y010996D01*
X005802Y010973D01*
X005800Y010950D01*
X007800Y010950D02*
X007800Y010700D01*
X007850Y010650D01*
X007850Y007550D01*
X007800Y007500D01*
X007800Y007250D01*
X007802Y007227D01*
X007807Y007204D01*
X007816Y007182D01*
X007829Y007162D01*
X007844Y007144D01*
X007862Y007129D01*
X007882Y007116D01*
X007904Y007107D01*
X007927Y007102D01*
X007950Y007100D01*
X009250Y007100D01*
X009273Y007102D01*
X009296Y007107D01*
X009318Y007116D01*
X009338Y007129D01*
X009356Y007144D01*
X009371Y007162D01*
X009384Y007182D01*
X009393Y007204D01*
X009398Y007227D01*
X009400Y007250D01*
X009400Y007500D01*
X009350Y007550D01*
X009350Y010650D01*
X009400Y010700D01*
X009400Y010950D01*
X009398Y010973D01*
X009393Y010996D01*
X009384Y011018D01*
X009371Y011038D01*
X009356Y011056D01*
X009338Y011071D01*
X009318Y011084D01*
X009296Y011093D01*
X009273Y011098D01*
X009250Y011100D01*
X007950Y011100D01*
X007927Y011098D01*
X007904Y011093D01*
X007882Y011084D01*
X007862Y011071D01*
X007844Y011056D01*
X007829Y011038D01*
X007816Y011018D01*
X007807Y010996D01*
X007802Y010973D01*
X007800Y010950D01*
X007700Y016300D02*
X007650Y016350D01*
X004550Y016350D01*
X004500Y016300D01*
X004250Y016300D01*
X004227Y016302D01*
X004204Y016307D01*
X004182Y016316D01*
X004162Y016329D01*
X004144Y016344D01*
X004129Y016362D01*
X004116Y016382D01*
X004107Y016404D01*
X004102Y016427D01*
X004100Y016450D01*
X004100Y017750D01*
X004102Y017773D01*
X004107Y017796D01*
X004116Y017818D01*
X004129Y017838D01*
X004144Y017856D01*
X004162Y017871D01*
X004182Y017884D01*
X004204Y017893D01*
X004227Y017898D01*
X004250Y017900D01*
X004500Y017900D01*
X004550Y017850D01*
X007650Y017850D01*
X007700Y017900D01*
X007950Y017900D01*
X007973Y017898D01*
X007996Y017893D01*
X008018Y017884D01*
X008038Y017871D01*
X008056Y017856D01*
X008071Y017838D01*
X008084Y017818D01*
X008093Y017796D01*
X008098Y017773D01*
X008100Y017750D01*
X008100Y016450D01*
X008098Y016427D01*
X008093Y016404D01*
X008084Y016382D01*
X008071Y016362D01*
X008056Y016344D01*
X008038Y016329D01*
X008018Y016316D01*
X007996Y016307D01*
X007973Y016302D01*
X007950Y016300D01*
X007700Y016300D01*
X007700Y019300D02*
X007650Y019350D01*
X004550Y019350D01*
X004500Y019300D01*
X004250Y019300D01*
X004227Y019302D01*
X004204Y019307D01*
X004182Y019316D01*
X004162Y019329D01*
X004144Y019344D01*
X004129Y019362D01*
X004116Y019382D01*
X004107Y019404D01*
X004102Y019427D01*
X004100Y019450D01*
X004100Y020750D01*
X004102Y020773D01*
X004107Y020796D01*
X004116Y020818D01*
X004129Y020838D01*
X004144Y020856D01*
X004162Y020871D01*
X004182Y020884D01*
X004204Y020893D01*
X004227Y020898D01*
X004250Y020900D01*
X004500Y020900D01*
X004550Y020850D01*
X007650Y020850D01*
X007700Y020900D01*
X007950Y020900D01*
X007973Y020898D01*
X007996Y020893D01*
X008018Y020884D01*
X008038Y020871D01*
X008056Y020856D01*
X008071Y020838D01*
X008084Y020818D01*
X008093Y020796D01*
X008098Y020773D01*
X008100Y020750D01*
X008100Y019450D01*
X008098Y019427D01*
X008093Y019404D01*
X008084Y019382D01*
X008071Y019362D01*
X008056Y019344D01*
X008038Y019329D01*
X008018Y019316D01*
X007996Y019307D01*
X007973Y019302D01*
X007950Y019300D01*
X007700Y019300D01*
X010000Y020850D02*
X010250Y020600D01*
X010750Y020600D01*
X011000Y020850D01*
X011250Y020600D01*
X011750Y020600D01*
X012000Y020850D01*
X012000Y021350D01*
X011750Y021600D01*
X011250Y021600D01*
X011000Y021350D01*
X011000Y020850D01*
X011000Y021350D02*
X010750Y021600D01*
X010250Y021600D01*
X010000Y021350D01*
X010000Y020850D01*
X008100Y021950D02*
X008100Y023250D01*
X008098Y023273D01*
X008093Y023296D01*
X008084Y023318D01*
X008071Y023338D01*
X008056Y023356D01*
X008038Y023371D01*
X008018Y023384D01*
X007996Y023393D01*
X007973Y023398D01*
X007950Y023400D01*
X007700Y023400D01*
X007650Y023350D01*
X004550Y023350D01*
X004500Y023400D01*
X004250Y023400D01*
X004227Y023398D01*
X004204Y023393D01*
X004182Y023384D01*
X004162Y023371D01*
X004144Y023356D01*
X004129Y023338D01*
X004116Y023318D01*
X004107Y023296D01*
X004102Y023273D01*
X004100Y023250D01*
X004100Y021950D01*
X004102Y021927D01*
X004107Y021904D01*
X004116Y021882D01*
X004129Y021862D01*
X004144Y021844D01*
X004162Y021829D01*
X004182Y021816D01*
X004204Y021807D01*
X004227Y021802D01*
X004250Y021800D01*
X004500Y021800D01*
X004550Y021850D01*
X007650Y021850D01*
X007700Y021800D01*
X007950Y021800D01*
X007973Y021802D01*
X007996Y021807D01*
X008018Y021816D01*
X008038Y021829D01*
X008056Y021844D01*
X008071Y021862D01*
X008084Y021882D01*
X008093Y021904D01*
X008098Y021927D01*
X008100Y021950D01*
X012000Y021350D02*
X012250Y021600D01*
X012750Y021600D01*
X013000Y021350D01*
X013250Y021600D01*
X013750Y021600D01*
X014000Y021350D01*
X014250Y021600D01*
X014750Y021600D01*
X015000Y021350D01*
X015000Y020850D01*
X014750Y020600D01*
X014250Y020600D01*
X014000Y020850D01*
X013750Y020600D01*
X013250Y020600D01*
X013000Y020850D01*
X012750Y020600D01*
X012250Y020600D01*
X012000Y020850D01*
X013000Y020850D02*
X013000Y021350D01*
X014000Y021350D02*
X014000Y020850D01*
X015000Y020850D02*
X015250Y020600D01*
X015750Y020600D01*
X016000Y020850D01*
X016250Y020600D01*
X016750Y020600D01*
X017000Y020850D01*
X017250Y020600D01*
X017750Y020600D01*
X018000Y020850D01*
X018000Y021350D01*
X017750Y021600D01*
X017250Y021600D01*
X017000Y021350D01*
X017000Y020850D01*
X017000Y021350D02*
X016750Y021600D01*
X016250Y021600D01*
X016000Y021350D01*
X016000Y020850D01*
X016000Y021350D02*
X015750Y021600D01*
X015250Y021600D01*
X015000Y021350D01*
X013900Y022150D02*
X013900Y024550D01*
X018300Y024550D01*
X018300Y022150D01*
X013900Y022150D01*
X014600Y022750D02*
X014600Y022800D01*
X014600Y022750D02*
X014800Y022750D01*
X014800Y022800D01*
X014800Y022750D02*
X015000Y022750D01*
X015000Y022950D01*
X015000Y022750D02*
X015200Y022750D01*
X015200Y023950D01*
X015000Y023950D01*
X015000Y023750D01*
X015000Y023950D02*
X014800Y023950D01*
X014800Y023900D01*
X014800Y023950D02*
X014600Y023950D01*
X014600Y023900D01*
X015200Y023950D02*
X015400Y023950D01*
X015600Y023950D01*
X015800Y023950D01*
X017600Y023950D01*
X017600Y023900D01*
X017600Y022800D02*
X017600Y022750D01*
X015800Y022750D01*
X015600Y022750D01*
X015400Y022750D01*
X015200Y022750D01*
X015400Y022750D02*
X015400Y023950D01*
X015600Y023950D02*
X015600Y023650D01*
X015800Y023850D02*
X015800Y023950D01*
X015600Y023050D02*
X015600Y022750D01*
X015800Y022750D02*
X015800Y022850D01*
X018600Y021350D02*
X018600Y020850D01*
X018850Y020600D01*
X019350Y020600D01*
X019600Y020850D01*
X019850Y020600D01*
X020350Y020600D01*
X020600Y020850D01*
X020600Y021350D01*
X020350Y021600D01*
X019850Y021600D01*
X019600Y021350D01*
X019600Y020850D01*
X019600Y021350D02*
X019350Y021600D01*
X018850Y021600D01*
X018600Y021350D01*
X018775Y022150D02*
X018775Y024550D01*
X023175Y024550D01*
X023175Y022150D01*
X018775Y022150D01*
X019475Y022750D02*
X021275Y022750D01*
X021275Y022850D01*
X021275Y022750D02*
X021475Y022750D01*
X021475Y023050D01*
X021475Y022750D02*
X021675Y022750D01*
X021875Y022750D01*
X022075Y022750D01*
X022075Y022950D01*
X022075Y022750D02*
X022275Y022750D01*
X022275Y022800D01*
X022275Y022750D02*
X022475Y022750D01*
X022475Y022800D01*
X021875Y022750D02*
X021875Y023950D01*
X022075Y023950D01*
X022275Y023950D01*
X022475Y023950D01*
X022475Y023900D01*
X022275Y023900D02*
X022275Y023950D01*
X022075Y023950D02*
X022075Y023750D01*
X021875Y023950D02*
X021675Y023950D01*
X021475Y023950D01*
X021475Y023650D01*
X021275Y023850D02*
X021275Y023950D01*
X021475Y023950D01*
X021275Y023950D02*
X019475Y023950D01*
X019475Y023900D01*
X019475Y022800D02*
X019475Y022750D01*
X020850Y021600D02*
X021350Y021600D01*
X021600Y021350D01*
X021850Y021600D01*
X022350Y021600D01*
X022600Y021350D01*
X022850Y021600D01*
X023350Y021600D01*
X023600Y021350D01*
X023600Y020850D01*
X023350Y020600D01*
X022850Y020600D01*
X022600Y020850D01*
X022350Y020600D01*
X021850Y020600D01*
X021600Y020850D01*
X021350Y020600D01*
X020850Y020600D01*
X020600Y020850D01*
X020600Y021350D02*
X020850Y021600D01*
X021600Y021350D02*
X021600Y020850D01*
X022600Y020850D02*
X022600Y021350D01*
X023600Y021350D02*
X023850Y021600D01*
X024350Y021600D01*
X024600Y021350D01*
X024850Y021600D01*
X025350Y021600D01*
X025600Y021350D01*
X025850Y021600D01*
X026350Y021600D01*
X026600Y021350D01*
X026600Y020850D01*
X026350Y020600D01*
X025850Y020600D01*
X025600Y020850D01*
X025350Y020600D01*
X024850Y020600D01*
X024600Y020850D01*
X024350Y020600D01*
X023850Y020600D01*
X023600Y020850D01*
X024600Y020850D02*
X024600Y021350D01*
X025600Y021350D02*
X025600Y020850D01*
X027300Y021700D02*
X027350Y021650D01*
X027350Y018550D01*
X027300Y018500D01*
X027300Y018250D01*
X027302Y018227D01*
X027307Y018204D01*
X027316Y018182D01*
X027329Y018162D01*
X027344Y018144D01*
X027362Y018129D01*
X027382Y018116D01*
X027404Y018107D01*
X027427Y018102D01*
X027450Y018100D01*
X028750Y018100D01*
X028773Y018102D01*
X028796Y018107D01*
X028818Y018116D01*
X028838Y018129D01*
X028856Y018144D01*
X028871Y018162D01*
X028884Y018182D01*
X028893Y018204D01*
X028898Y018227D01*
X028900Y018250D01*
X028900Y018500D01*
X028850Y018550D01*
X028850Y021650D01*
X028900Y021700D01*
X028900Y021950D01*
X028898Y021973D01*
X028893Y021996D01*
X028884Y022018D01*
X028871Y022038D01*
X028856Y022056D01*
X028838Y022071D01*
X028818Y022084D01*
X028796Y022093D01*
X028773Y022098D01*
X028750Y022100D01*
X027450Y022100D01*
X027427Y022098D01*
X027404Y022093D01*
X027382Y022084D01*
X027362Y022071D01*
X027344Y022056D01*
X027329Y022038D01*
X027316Y022018D01*
X027307Y021996D01*
X027302Y021973D01*
X027300Y021950D01*
X027300Y021700D01*
X026100Y022500D02*
X026053Y022502D01*
X026005Y022508D01*
X025959Y022517D01*
X025913Y022530D01*
X025869Y022546D01*
X025825Y022567D01*
X025784Y022590D01*
X025745Y022616D01*
X025708Y022646D01*
X025673Y022679D01*
X025641Y022714D01*
X025612Y022751D01*
X026100Y023700D02*
X026145Y023698D01*
X026191Y023693D01*
X026235Y023685D01*
X026279Y023673D01*
X026322Y023657D01*
X026364Y023639D01*
X026404Y023617D01*
X026442Y023593D01*
X026478Y023566D01*
X026513Y023536D01*
X026544Y023503D01*
X026574Y023468D01*
X026100Y023700D02*
X026055Y023698D01*
X026009Y023693D01*
X025965Y023685D01*
X025921Y023673D01*
X025878Y023657D01*
X025836Y023639D01*
X025796Y023617D01*
X025758Y023593D01*
X025722Y023566D01*
X025687Y023536D01*
X025656Y023503D01*
X025626Y023468D01*
X026100Y022500D02*
X026146Y022502D01*
X026192Y022507D01*
X026238Y022516D01*
X026283Y022528D01*
X026326Y022544D01*
X026368Y022563D01*
X026409Y022586D01*
X026448Y022611D01*
X026484Y022639D01*
X026519Y022670D01*
X026551Y022704D01*
X026580Y022740D01*
X021675Y022750D02*
X021675Y023950D01*
X022375Y014525D02*
X022625Y014525D01*
X022675Y014475D01*
X025775Y014475D01*
X025825Y014525D01*
X026075Y014525D01*
X026098Y014523D01*
X026121Y014518D01*
X026143Y014509D01*
X026163Y014496D01*
X026181Y014481D01*
X026196Y014463D01*
X026209Y014443D01*
X026218Y014421D01*
X026223Y014398D01*
X026225Y014375D01*
X026225Y013075D01*
X026223Y013052D01*
X026218Y013029D01*
X026209Y013007D01*
X026196Y012987D01*
X026181Y012969D01*
X026163Y012954D01*
X026143Y012941D01*
X026121Y012932D01*
X026098Y012927D01*
X026075Y012925D01*
X025825Y012925D01*
X025775Y012975D01*
X022675Y012975D01*
X022625Y012925D01*
X022375Y012925D01*
X022352Y012927D01*
X022329Y012932D01*
X022307Y012941D01*
X022287Y012954D01*
X022269Y012969D01*
X022254Y012987D01*
X022241Y013007D01*
X022232Y013029D01*
X022227Y013052D01*
X022225Y013075D01*
X022225Y014375D01*
X022227Y014398D01*
X022232Y014421D01*
X022241Y014443D01*
X022254Y014463D01*
X022269Y014481D01*
X022287Y014496D01*
X022307Y014509D01*
X022329Y014518D01*
X022352Y014523D01*
X022375Y014525D01*
X021500Y012275D02*
X021250Y012275D01*
X021227Y012273D01*
X021204Y012268D01*
X021182Y012259D01*
X021162Y012246D01*
X021144Y012231D01*
X021129Y012213D01*
X021116Y012193D01*
X021107Y012171D01*
X021102Y012148D01*
X021100Y012125D01*
X021100Y010825D01*
X021102Y010802D01*
X021107Y010779D01*
X021116Y010757D01*
X021129Y010737D01*
X021144Y010719D01*
X021162Y010704D01*
X021182Y010691D01*
X021204Y010682D01*
X021227Y010677D01*
X021250Y010675D01*
X021500Y010675D01*
X021550Y010725D01*
X024650Y010725D01*
X024700Y010675D01*
X024950Y010675D01*
X024973Y010677D01*
X024996Y010682D01*
X025018Y010691D01*
X025038Y010704D01*
X025056Y010719D01*
X025071Y010737D01*
X025084Y010757D01*
X025093Y010779D01*
X025098Y010802D01*
X025100Y010825D01*
X025100Y012125D01*
X025098Y012148D01*
X025093Y012171D01*
X025084Y012193D01*
X025071Y012213D01*
X025056Y012231D01*
X025038Y012246D01*
X025018Y012259D01*
X024996Y012268D01*
X024973Y012273D01*
X024950Y012275D01*
X024700Y012275D01*
X024650Y012225D01*
X021550Y012225D01*
X021500Y012275D01*
X022655Y008600D02*
X023155Y008600D01*
X023405Y008350D01*
X023405Y007850D01*
X023155Y007600D01*
X023405Y007350D01*
X023405Y006850D01*
X023155Y006600D01*
X023405Y006350D01*
X023405Y005850D01*
X023155Y005600D01*
X023405Y005350D01*
X023405Y004850D01*
X023155Y004600D01*
X022655Y004600D01*
X022405Y004850D01*
X022405Y005350D01*
X022655Y005600D01*
X022405Y005850D01*
X022405Y006350D01*
X022655Y006600D01*
X022405Y006850D01*
X022405Y007350D01*
X022655Y007600D01*
X022405Y007850D01*
X022405Y008350D01*
X022655Y008600D01*
X022850Y002600D02*
X022600Y002350D01*
X022600Y001850D01*
X022850Y001600D01*
X023350Y001600D01*
X023600Y001850D01*
X023850Y001600D01*
X024350Y001600D01*
X024600Y001850D01*
X024600Y002350D01*
X024350Y002600D01*
X023850Y002600D01*
X023600Y002350D01*
X023600Y001850D01*
X023600Y002350D02*
X023350Y002600D01*
X022850Y002600D01*
X022600Y002350D02*
X022350Y002600D01*
X021850Y002600D01*
X021600Y002350D01*
X021600Y001850D01*
X021350Y001600D01*
X020850Y001600D01*
X020600Y001850D01*
X020600Y002350D01*
X020850Y002600D01*
X021350Y002600D01*
X021600Y002350D01*
X021600Y001850D02*
X021850Y001600D01*
X022350Y001600D01*
X022600Y001850D01*
X024600Y001850D02*
X024850Y001600D01*
X025350Y001600D01*
X025600Y001850D01*
X025850Y001600D01*
X026350Y001600D01*
X026600Y001850D01*
X026600Y002350D01*
X026350Y002600D01*
X025850Y002600D01*
X025600Y002350D01*
X025600Y001850D01*
X025600Y002350D02*
X025350Y002600D01*
X024850Y002600D01*
X024600Y002350D01*
X019600Y002350D02*
X019600Y001850D01*
X019350Y001600D01*
X018850Y001600D01*
X018600Y001850D01*
X018350Y001600D01*
X017850Y001600D01*
X017600Y001850D01*
X017350Y001600D01*
X016850Y001600D01*
X016600Y001850D01*
X016350Y001600D01*
X015850Y001600D01*
X015600Y001850D01*
X015350Y001600D01*
X014850Y001600D01*
X014600Y001850D01*
X014350Y001600D01*
X013850Y001600D01*
X013600Y001850D01*
X013600Y002350D01*
X013850Y002600D01*
X014350Y002600D01*
X014600Y002350D01*
X014600Y001850D01*
X014600Y002350D02*
X014850Y002600D01*
X015350Y002600D01*
X015600Y002350D01*
X015850Y002600D01*
X016350Y002600D01*
X016600Y002350D01*
X016850Y002600D01*
X017350Y002600D01*
X017600Y002350D01*
X017600Y001850D01*
X017600Y002350D02*
X017850Y002600D01*
X018350Y002600D01*
X018600Y002350D01*
X018850Y002600D01*
X019350Y002600D01*
X019600Y002350D01*
X018600Y002350D02*
X018600Y001850D01*
X016600Y001850D02*
X016600Y002350D01*
X015600Y002350D02*
X015600Y001850D01*
X002100Y019600D02*
X001100Y019600D01*
X000850Y019600D01*
X000850Y021600D01*
X001100Y021600D01*
X002100Y021600D01*
X002100Y019600D01*
X001100Y019600D02*
X001100Y021600D01*
D13*
X003825Y022600D03*
X003825Y020100D03*
X003825Y017100D03*
X001825Y014100D03*
X006375Y014100D03*
X008375Y017100D03*
X008375Y020100D03*
X008375Y022600D03*
X020825Y011475D03*
X021950Y013725D03*
X025375Y011475D03*
X026500Y013725D03*
D14*
X023511Y013675D02*
X023511Y013525D01*
X023436Y013450D01*
X023285Y013450D01*
X023210Y013525D01*
X023210Y013675D02*
X023361Y013750D01*
X023436Y013750D01*
X023511Y013675D01*
X023511Y013900D02*
X023210Y013900D01*
X023210Y013675D01*
X023050Y013675D02*
X023050Y013825D01*
X022975Y013900D01*
X022750Y013900D01*
X022750Y013450D01*
X022750Y013600D02*
X022975Y013600D01*
X023050Y013675D01*
X022900Y013600D02*
X023050Y013450D01*
X022261Y011400D02*
X022111Y011325D01*
X021960Y011175D01*
X022186Y011175D01*
X022261Y011100D01*
X022261Y011025D01*
X022186Y010950D01*
X022035Y010950D01*
X021960Y011025D01*
X021960Y011175D01*
X021800Y011175D02*
X021800Y011325D01*
X021725Y011400D01*
X021500Y011400D01*
X021500Y010950D01*
X021500Y011100D02*
X021725Y011100D01*
X021800Y011175D01*
X021650Y011100D02*
X021800Y010950D01*
X023547Y010100D02*
X023547Y004273D01*
X015563Y004273D01*
X015563Y010100D01*
X023547Y010100D01*
X023390Y017625D02*
X023390Y018075D01*
X023165Y017850D01*
X023465Y017850D01*
X023004Y017700D02*
X022929Y017625D01*
X022779Y017625D01*
X022704Y017700D01*
X022704Y018000D01*
X022779Y018075D01*
X022929Y018075D01*
X023004Y018000D01*
X027500Y021075D02*
X027500Y021525D01*
X027725Y021525D01*
X027800Y021450D01*
X027800Y021300D01*
X027725Y021225D01*
X027500Y021225D01*
X027650Y021225D02*
X027800Y021075D01*
X027960Y021075D02*
X028261Y021075D01*
X028111Y021075D02*
X028111Y021525D01*
X027960Y021375D01*
X028421Y021450D02*
X028421Y021150D01*
X028721Y021450D01*
X028721Y021150D01*
X028646Y021075D01*
X028496Y021075D01*
X028421Y021150D01*
X028421Y021450D02*
X028496Y021525D01*
X028646Y021525D01*
X028721Y021450D01*
X028656Y024025D02*
X028656Y024475D01*
X028506Y024325D01*
X028346Y024400D02*
X028346Y024100D01*
X028271Y024025D01*
X028046Y024025D01*
X028046Y024475D01*
X028271Y024475D01*
X028346Y024400D01*
X028506Y024025D02*
X028806Y024025D01*
X027886Y024025D02*
X027585Y024025D01*
X027585Y024475D01*
X027886Y024475D01*
X027736Y024250D02*
X027585Y024250D01*
X027425Y024025D02*
X027125Y024025D01*
X027125Y024475D01*
X022890Y023975D02*
X022590Y023975D01*
X022740Y023975D02*
X022740Y024425D01*
X022590Y024275D01*
X019190Y024275D02*
X019190Y024350D01*
X019115Y024425D01*
X018965Y024425D01*
X018890Y024350D01*
X019190Y024275D02*
X018890Y023975D01*
X019190Y023975D01*
X018165Y023600D02*
X018090Y023675D01*
X017940Y023675D01*
X017865Y023600D01*
X017704Y023600D02*
X017629Y023675D01*
X017479Y023675D01*
X017404Y023600D01*
X017404Y023525D01*
X017479Y023450D01*
X017629Y023450D01*
X017704Y023375D01*
X017704Y023300D01*
X017629Y023225D01*
X017479Y023225D01*
X017404Y023300D01*
X017865Y023225D02*
X018165Y023525D01*
X018165Y023600D01*
X018165Y023225D02*
X017865Y023225D01*
X017850Y022725D02*
X017775Y022650D01*
X017850Y022725D02*
X018000Y022725D01*
X018075Y022650D01*
X018075Y022575D01*
X017775Y022275D01*
X018075Y022275D01*
X014375Y022275D02*
X014075Y022275D01*
X014225Y022275D02*
X014225Y022725D01*
X014075Y022575D01*
X013686Y024025D02*
X013385Y024025D01*
X013536Y024025D02*
X013536Y024475D01*
X013385Y024325D01*
X013225Y024400D02*
X013150Y024475D01*
X013000Y024475D01*
X012925Y024400D01*
X012925Y024325D01*
X013000Y024250D01*
X013150Y024250D01*
X013225Y024175D01*
X013225Y024100D01*
X013150Y024025D01*
X013000Y024025D01*
X012925Y024100D01*
X005386Y022950D02*
X005386Y022650D01*
X005311Y022575D01*
X005160Y022575D01*
X005085Y022650D01*
X005160Y022800D02*
X005386Y022800D01*
X005386Y022950D02*
X005311Y023025D01*
X005160Y023025D01*
X005085Y022950D01*
X005085Y022875D01*
X005160Y022800D01*
X004925Y022800D02*
X004925Y022950D01*
X004850Y023025D01*
X004625Y023025D01*
X004625Y022575D01*
X004625Y022725D02*
X004850Y022725D01*
X004925Y022800D01*
X004775Y022725D02*
X004925Y022575D01*
X004929Y020250D02*
X004704Y020250D01*
X004704Y019800D01*
X004704Y019950D02*
X004929Y019950D01*
X005004Y020025D01*
X005004Y020175D01*
X004929Y020250D01*
X005165Y020175D02*
X005165Y020100D01*
X005240Y020025D01*
X005390Y020025D01*
X005465Y019950D01*
X005465Y019875D01*
X005390Y019800D01*
X005240Y019800D01*
X005165Y019875D01*
X005165Y019950D01*
X005240Y020025D01*
X005390Y020025D02*
X005465Y020100D01*
X005465Y020175D01*
X005390Y020250D01*
X005240Y020250D01*
X005165Y020175D01*
X004854Y019950D02*
X005004Y019800D01*
X005190Y017375D02*
X005190Y016925D01*
X005040Y016925D02*
X005340Y016925D01*
X005040Y017225D02*
X005190Y017375D01*
X004879Y017300D02*
X004879Y017150D01*
X004804Y017075D01*
X004579Y017075D01*
X004579Y016925D02*
X004579Y017375D01*
X004804Y017375D01*
X004879Y017300D01*
X004729Y017075D02*
X004879Y016925D01*
X001965Y018000D02*
X001665Y018000D01*
X001815Y018000D02*
X001815Y018450D01*
X001665Y018300D01*
X001504Y018450D02*
X001204Y018450D01*
X001354Y018450D02*
X001354Y018000D01*
X001500Y017645D02*
X001500Y017487D01*
X000950Y017425D02*
X000950Y015775D01*
X001500Y015713D02*
X001500Y015555D01*
X001500Y016487D02*
X001500Y016713D01*
X000950Y017425D02*
X000998Y017460D01*
X001048Y017493D01*
X001100Y017524D01*
X001154Y017551D01*
X001209Y017575D01*
X001266Y017595D01*
X001323Y017613D01*
X001381Y017627D01*
X001440Y017638D01*
X001500Y017645D01*
X001562Y017649D01*
X001625Y017650D01*
X001687Y017646D01*
X001749Y017639D01*
X001810Y017629D01*
X001871Y017614D01*
X001931Y017596D01*
X001990Y017575D01*
X002047Y017550D01*
X002102Y017522D01*
X002156Y017491D01*
X002208Y017456D01*
X002258Y017418D01*
X002305Y017378D01*
X002350Y017334D01*
X002393Y017289D01*
X002432Y017240D01*
X002469Y017190D01*
X002502Y017137D01*
X002533Y017083D01*
X002560Y017026D01*
X002583Y016969D01*
X002603Y016910D01*
X002603Y016290D02*
X002583Y016230D01*
X002559Y016171D01*
X002531Y016114D01*
X002500Y016059D01*
X002465Y016005D01*
X002428Y015954D01*
X002387Y015905D01*
X002343Y015859D01*
X002297Y015815D01*
X002248Y015774D01*
X002197Y015736D01*
X002144Y015702D01*
X002088Y015670D01*
X002031Y015643D01*
X001972Y015618D01*
X001912Y015598D01*
X001851Y015580D01*
X001789Y015567D01*
X001726Y015558D01*
X001663Y015552D01*
X001599Y015550D01*
X001535Y015552D01*
X001472Y015558D01*
X001409Y015567D01*
X001347Y015581D01*
X001286Y015598D01*
X001226Y015619D01*
X001167Y015643D01*
X001110Y015671D01*
X001054Y015703D01*
X001001Y015738D01*
X000950Y015775D01*
X002579Y014250D02*
X002804Y014250D01*
X002879Y014175D01*
X002879Y014025D01*
X002804Y013950D01*
X002579Y013950D01*
X002579Y013800D02*
X002579Y014250D01*
X002729Y013950D02*
X002879Y013800D01*
X003040Y014025D02*
X003340Y014025D01*
X003265Y013800D02*
X003265Y014250D01*
X003040Y014025D01*
X003040Y013175D02*
X002890Y013025D01*
X002729Y013100D02*
X002654Y013175D01*
X002504Y013175D01*
X002429Y013100D01*
X002429Y012800D01*
X002504Y012725D01*
X002654Y012725D01*
X002729Y012800D01*
X002890Y012725D02*
X003190Y012725D01*
X003040Y012725D02*
X003040Y013175D01*
X002211Y011100D02*
X002060Y011100D01*
X001985Y011025D01*
X001825Y011025D02*
X001750Y011100D01*
X001600Y011100D01*
X001525Y011025D01*
X001525Y010725D01*
X001600Y010650D01*
X001750Y010650D01*
X001825Y010725D01*
X001985Y010650D02*
X002286Y010950D01*
X002286Y011025D01*
X002211Y011100D01*
X002286Y010650D02*
X001985Y010650D01*
X001961Y009225D02*
X002036Y009150D01*
X002036Y009075D01*
X001961Y009000D01*
X002036Y008925D01*
X002036Y008850D01*
X001961Y008775D01*
X001810Y008775D01*
X001735Y008850D01*
X001575Y008850D02*
X001500Y008775D01*
X001350Y008775D01*
X001275Y008850D01*
X001275Y009150D01*
X001350Y009225D01*
X001500Y009225D01*
X001575Y009150D01*
X001735Y009150D02*
X001810Y009225D01*
X001961Y009225D01*
X001961Y009000D02*
X001886Y009000D01*
X006375Y010075D02*
X006375Y010525D01*
X006600Y010525D01*
X006675Y010450D01*
X006675Y010300D01*
X006600Y010225D01*
X006375Y010225D01*
X006525Y010225D02*
X006675Y010075D01*
X006835Y010150D02*
X006910Y010075D01*
X007061Y010075D01*
X007136Y010150D01*
X007136Y010225D01*
X007061Y010300D01*
X006986Y010300D01*
X007061Y010300D02*
X007136Y010375D01*
X007136Y010450D01*
X007061Y010525D01*
X006910Y010525D01*
X006835Y010450D01*
X008375Y010400D02*
X008375Y009950D01*
X008375Y010100D02*
X008600Y010100D01*
X008675Y010175D01*
X008675Y010325D01*
X008600Y010400D01*
X008375Y010400D01*
X008525Y010100D02*
X008675Y009950D01*
X008835Y009950D02*
X009136Y010250D01*
X009136Y010325D01*
X009061Y010400D01*
X008910Y010400D01*
X008835Y010325D01*
X008835Y009950D02*
X009136Y009950D01*
D15*
X008600Y011375D03*
X006600Y011375D03*
X006600Y006825D03*
X008600Y006825D03*
X028100Y017825D03*
X028100Y022375D03*
D16*
X003220Y012350D02*
X003220Y012100D01*
X003220Y011850D01*
X002970Y011850D02*
X002970Y012100D01*
X002970Y012350D01*
X002980Y010225D02*
X002980Y009975D01*
X002980Y009725D01*
X002730Y009725D02*
X002730Y009975D01*
X002730Y010225D01*
X002970Y008350D02*
X002970Y008100D01*
X002970Y007850D01*
X003220Y007850D02*
X003220Y008100D01*
X003220Y008350D01*
D17*
X002957Y003300D02*
X002650Y003300D01*
X002496Y003223D02*
X002420Y003300D01*
X002189Y003300D01*
X002189Y002839D01*
X002189Y002993D02*
X002420Y002993D01*
X002496Y003070D01*
X002496Y003223D01*
X002343Y002993D02*
X002496Y002839D01*
X002650Y002839D02*
X002650Y002916D01*
X002957Y003223D01*
X002957Y003300D01*
X014704Y008840D02*
X014935Y008840D01*
X015011Y008917D01*
X015011Y009224D01*
X014935Y009301D01*
X014704Y009301D01*
X014704Y008840D01*
X015165Y008917D02*
X015242Y008840D01*
X015395Y008840D01*
X015472Y008917D01*
X015472Y008994D01*
X015395Y009071D01*
X015242Y009071D01*
X015165Y009147D01*
X015165Y009224D01*
X015242Y009301D01*
X015395Y009301D01*
X015472Y009224D01*
X015625Y009147D02*
X015779Y009301D01*
X015779Y008840D01*
X015932Y008840D02*
X015625Y008840D01*
X016086Y008917D02*
X016162Y008840D01*
X016316Y008840D01*
X016393Y008917D01*
X016393Y008994D01*
X016316Y009071D01*
X016239Y009071D01*
X016316Y009071D02*
X016393Y009147D01*
X016393Y009224D01*
X016316Y009301D01*
X016162Y009301D01*
X016086Y009224D01*
X016546Y009224D02*
X016546Y008917D01*
X016853Y009224D01*
X016853Y008917D01*
X016776Y008840D01*
X016623Y008840D01*
X016546Y008917D01*
X016546Y009224D02*
X016623Y009301D01*
X016776Y009301D01*
X016853Y009224D01*
X017006Y009301D02*
X017313Y009301D01*
X017313Y009224D01*
X017006Y008917D01*
X017006Y008840D01*
X018388Y009071D02*
X018695Y009071D01*
X018541Y009224D02*
X018541Y008917D01*
X019308Y008840D02*
X019615Y009147D01*
X019615Y009224D01*
X019539Y009301D01*
X019385Y009301D01*
X019308Y009224D01*
X019308Y008840D02*
X019615Y008840D01*
X019769Y009071D02*
X020076Y009071D01*
X020229Y009224D02*
X020229Y008917D01*
X020306Y008840D01*
X020459Y008840D01*
X020536Y008917D01*
X020690Y008917D02*
X020766Y008840D01*
X020920Y008840D01*
X020997Y008917D01*
X020997Y008994D01*
X020920Y009071D01*
X020843Y009071D01*
X020920Y009071D02*
X020997Y009147D01*
X020997Y009224D01*
X020920Y009301D01*
X020766Y009301D01*
X020690Y009224D01*
X020536Y009224D02*
X020459Y009301D01*
X020306Y009301D01*
X020229Y009224D01*
X019999Y009301D02*
X019999Y008840D01*
X019769Y009071D02*
X019999Y009301D01*
X021150Y009224D02*
X021227Y009301D01*
X021380Y009301D01*
X021457Y009224D01*
X021457Y009147D01*
X021150Y008840D01*
X021457Y008840D01*
X021610Y008840D02*
X021610Y009301D01*
X021917Y008840D01*
X021917Y009301D01*
X021919Y008313D02*
X021689Y008313D01*
X021689Y007852D01*
X021919Y007852D01*
X021996Y007929D01*
X021996Y008236D01*
X021919Y008313D01*
X021536Y008313D02*
X021536Y007852D01*
X021229Y008313D01*
X021229Y007852D01*
X021075Y007929D02*
X021075Y008082D01*
X020922Y008082D01*
X021075Y007929D02*
X020999Y007852D01*
X020845Y007852D01*
X020768Y007929D01*
X020768Y008236D01*
X020845Y008313D01*
X020999Y008313D01*
X021075Y008236D01*
X021075Y007289D02*
X021075Y006982D01*
X020922Y006829D01*
X020768Y006982D01*
X020768Y007289D01*
X021229Y007212D02*
X021229Y006905D01*
X021305Y006829D01*
X021459Y006829D01*
X021536Y006905D01*
X021689Y006905D02*
X021689Y007212D01*
X021766Y007289D01*
X021919Y007289D01*
X021996Y007212D01*
X021996Y006905D02*
X021919Y006829D01*
X021766Y006829D01*
X021689Y006905D01*
X021536Y007212D02*
X021459Y007289D01*
X021305Y007289D01*
X021229Y007212D01*
X021229Y006305D02*
X021459Y006305D01*
X021536Y006228D01*
X021536Y005921D01*
X021459Y005844D01*
X021229Y005844D01*
X021229Y006305D01*
X021075Y006228D02*
X020999Y006305D01*
X020845Y006305D01*
X020768Y006228D01*
X020768Y006151D01*
X020845Y006075D01*
X020999Y006075D01*
X021075Y005998D01*
X021075Y005921D01*
X020999Y005844D01*
X020845Y005844D01*
X020768Y005921D01*
X020845Y005281D02*
X020768Y005204D01*
X020768Y005128D01*
X020845Y005051D01*
X020999Y005051D01*
X021075Y004974D01*
X021075Y004898D01*
X020999Y004821D01*
X020845Y004821D01*
X020768Y004898D01*
X021075Y005204D02*
X020999Y005281D01*
X020845Y005281D01*
X021229Y005204D02*
X021229Y004898D01*
X021305Y004821D01*
X021459Y004821D01*
X021536Y004898D01*
X021689Y004821D02*
X021996Y004821D01*
X021689Y004821D02*
X021689Y005281D01*
X021536Y005204D02*
X021459Y005281D01*
X021305Y005281D01*
X021229Y005204D01*
X021689Y005844D02*
X021689Y006151D01*
X021843Y006305D01*
X021996Y006151D01*
X021996Y005844D01*
X021996Y006075D02*
X021689Y006075D01*
X003357Y021215D02*
X003050Y021215D01*
X003204Y021215D02*
X003204Y021675D01*
X003050Y021522D01*
X002897Y021675D02*
X002743Y021675D01*
X002820Y021675D02*
X002820Y021292D01*
X002743Y021215D01*
X002667Y021215D01*
X002590Y021292D01*
D18*
X002100Y004975D03*
D19*
X002100Y004975D03*
D20*
X023350Y015475D02*
X023600Y015475D01*
X023475Y015600D02*
X023475Y015350D01*
X022032Y016225D02*
X022034Y016290D01*
X022040Y016355D01*
X022050Y016419D01*
X022064Y016483D01*
X022081Y016546D01*
X022103Y016607D01*
X022128Y016667D01*
X022157Y016726D01*
X022189Y016782D01*
X022225Y016837D01*
X022264Y016889D01*
X022306Y016939D01*
X022351Y016986D01*
X022398Y017030D01*
X022449Y017071D01*
X022502Y017110D01*
X022557Y017144D01*
X022614Y017176D01*
X022673Y017204D01*
X022733Y017228D01*
X022795Y017248D01*
X022858Y017265D01*
X022922Y017278D01*
X022986Y017287D01*
X023051Y017292D01*
X023116Y017293D01*
X023181Y017290D01*
X023246Y017283D01*
X023310Y017272D01*
X023374Y017257D01*
X023436Y017239D01*
X023497Y017216D01*
X023557Y017190D01*
X023615Y017161D01*
X023671Y017127D01*
X023725Y017091D01*
X023777Y017051D01*
X023826Y017008D01*
X023872Y016963D01*
X023916Y016914D01*
X023956Y016863D01*
X023994Y016810D01*
X024028Y016754D01*
X024058Y016697D01*
X024085Y016637D01*
X024108Y016577D01*
X024128Y016515D01*
X024144Y016451D01*
X024156Y016387D01*
X024164Y016323D01*
X024168Y016258D01*
X024168Y016192D01*
X024164Y016127D01*
X024156Y016063D01*
X024144Y015999D01*
X024128Y015935D01*
X024108Y015873D01*
X024085Y015813D01*
X024058Y015753D01*
X024028Y015696D01*
X023994Y015640D01*
X023956Y015587D01*
X023916Y015536D01*
X023872Y015487D01*
X023826Y015442D01*
X023777Y015399D01*
X023725Y015359D01*
X023671Y015323D01*
X023615Y015289D01*
X023557Y015260D01*
X023497Y015234D01*
X023436Y015211D01*
X023374Y015193D01*
X023310Y015178D01*
X023246Y015167D01*
X023181Y015160D01*
X023116Y015157D01*
X023051Y015158D01*
X022986Y015163D01*
X022922Y015172D01*
X022858Y015185D01*
X022795Y015202D01*
X022733Y015222D01*
X022673Y015246D01*
X022614Y015274D01*
X022557Y015306D01*
X022502Y015340D01*
X022449Y015379D01*
X022398Y015420D01*
X022351Y015464D01*
X022306Y015511D01*
X022264Y015561D01*
X022225Y015613D01*
X022189Y015668D01*
X022157Y015724D01*
X022128Y015783D01*
X022103Y015843D01*
X022081Y015904D01*
X022064Y015967D01*
X022050Y016031D01*
X022040Y016095D01*
X022034Y016160D01*
X022032Y016225D01*
D21*
X001600Y020100D03*
X001600Y021100D03*
D22*
X026100Y022300D02*
X026154Y022302D01*
X026208Y022307D01*
X026261Y022316D01*
X026314Y022329D01*
X026365Y022345D01*
X026415Y022365D01*
X026464Y022388D01*
X026512Y022414D01*
X026557Y022443D01*
X026600Y022476D01*
X026641Y022511D01*
X026680Y022549D01*
X026716Y022589D01*
X026749Y022632D01*
X026779Y022677D01*
X026806Y022724D01*
X026795Y023497D02*
X026765Y023545D01*
X026732Y023590D01*
X026696Y023633D01*
X026658Y023674D01*
X026616Y023711D01*
X026572Y023746D01*
X026526Y023777D01*
X026477Y023806D01*
X026427Y023830D01*
X026375Y023851D01*
X026321Y023869D01*
X026267Y023882D01*
X026212Y023892D01*
X026156Y023898D01*
X026100Y023900D01*
X026047Y023898D01*
X025993Y023893D01*
X025941Y023884D01*
X025889Y023872D01*
X025838Y023856D01*
X025788Y023837D01*
X025739Y023814D01*
X025692Y023788D01*
X025647Y023760D01*
X025604Y023728D01*
X025564Y023694D01*
X025525Y023656D01*
X025489Y023617D01*
X025485Y022588D02*
X025521Y022548D01*
X025560Y022510D01*
X025601Y022475D01*
X025644Y022443D01*
X025689Y022413D01*
X025736Y022387D01*
X025785Y022365D01*
X025836Y022345D01*
X025887Y022329D01*
X025939Y022316D01*
X025993Y022307D01*
X026046Y022302D01*
X026100Y022300D01*
M02*
